<mxfile host="app.diagrams.net" modified="2024-06-26T11:18:21.786Z" agent="Mozilla/5.0 (X11; Linux x86_64) AppleWebKit/537.36 (KHTML, like Gecko) Chrome/124.0.0.0 Safari/537.36" version="24.6.3" etag="lqGQ8PfNlOEN2dteu9Ho" type="github">
  <diagram name="Page-1" id="Ii7fOqfKXMB5OVGnqUjo">
    <mxGraphModel>
      <root>
        <mxCell id="0" />
        <mxCell id="1" parent="0" />
      </root>
    </mxGraphModel>
  </diagram>
</mxfile>
